<?xml version="1.0" encoding="iso-8859-1"?>
<!-- Generator: Adobe Illustrator 21.0.2, SVG Export Plug-In . SVG Version: 6.00 Build 0)  -->
<svg version="1.1" id="Layer_1" xmlns="http://www.w3.org/2000/svg" xmlns:xlink="http://www.w3.org/1999/xlink" x="0px" y="0px"
	 viewBox="0 0 841.89 1190.55" style="enable-background:new 0 0 841.89 1190.55;" xml:space="preserve">
<g>
	<path style="fill-rule:evenodd;clip-rule:evenodd;fill:#FFFFFF;" d="M499.704,157.444c-0.082,0.011,1.18-0.457,2.5-0.25
		c4.025,0.631,7.623,5.245,9.499,8.749c1.628,3.044,3.077,7.311,4.249,11.499c1.223,4.371,2.389,9.318,2.5,13.248
		c0.125,4.373,1.072,8.374,2.523,11.665c1.434,3.248,2.956,5.237,4.977,8.082c2.695,3.799,5.379,9.095,5.248,15.498
		c-0.104,5.135-2.729,11.2-7.248,11.249c-7.111,0.077-6.529-9.444-8-15.998c-0.664-2.966-2.355-6.451-3.748-9.999
		c-1.256-3.194-2.58-6.44-4.251-9.249c-3.705-6.23-5.153-13.464-7.749-19.248c-1.798-4.007-3.773-7.337-4.998-12.998
		c-0.66-3.045-1.395-6.798-0.5-9.249C495.476,158.331,497.77,157.702,499.704,157.444z M500.704,176.942
		c2.015,4.231,4.206,8.436,5.5,12.248c0.727,2.14,1.074,4.181,1.749,6c0.71,1.911,1.556,3.44,2.5,5.249
		c2.845,5.451,4.524,9.796,6.499,15.498c0.607,1.753,1.458,3.302,1.75,4.749c1.106,5.483,0.227,13.089,4.75,13.249
		c3.45,0.122,5.215-5.651,4.5-10.749c-0.232-1.645-1.199-3.765-2-5.499c-1.814-3.922-3.039-5.956-4.916-9.217
		c-1.058-1.837-1.853-3.249-2.572-5.152c-1.608-4.26-3.127-8.455-3.512-13.378c-0.721-9.234-3.254-15.83-6.749-22.247
		c-1.807-3.319-3.565-7.309-6.999-6.749C494.929,161.966,498.712,172.757,500.704,176.942z"/>
	<path style="fill-rule:evenodd;clip-rule:evenodd;fill:#FFFFFF;" d="M393.218,160.194c1.02-0.106,2.013-0.387,4,0.75
		c1.535,0.878,2.84,2.077,2.499,1.749c6.02,5.784,9.03,14.733,13.748,22.248c3.847,6.126,6.834,9.741,11.999,15.248
		c3.629,3.869,7.858,8.152,11.747,12.248c4.407,4.642,10.688,10.697,13.499,16.998c2.43,5.448,2.583,16.324-4.75,16.498
		c-4,0.095-8.405-4.665-10.747-7.499c-1.113-1.346-2.43-2.614-3.25-4c-1.515-2.555-2.491-5.671-3.999-8.499
		c-1.396-2.616-4.052-5.148-5.5-7.749c-2.747-4.934-5.981-10.157-10.749-13.999c-4.907-3.953-8.381-5.544-12.999-9.749
		c-3.636-3.311-8.341-8.945-10.499-13.499c-2.177-4.594-4.749-12.581-1.25-17.498C388.261,161.628,390.798,160.447,393.218,160.194z
		 M389.719,174.692c2.177,6.339,5.349,11.849,8.999,15.498c5.571,5.571,10.618,8.621,16.778,14.74
		c4.995,4.961,10.639,11.561,14.499,19.248c2.727,5.432,3.921,6.619,6.22,10.257c1.813,2.874,4.714,7.954,8.997,7.499
		c3.587-0.38,4.567-4.77,3.5-8.749c-0.456-1.704-1.751-3.822-3-5.749c-5.926-9.152-14.642-15.63-20.996-23.497
		c-4.454-5.514-7.881-8.025-11.499-12.999c-2.872-3.948-5.052-8.008-7.25-12.499c-1.21-2.473-2.991-5.568-4.749-8.498
		c-0.805-1.342-1.326-2.314-2.75-3.75c-1.634-1.648-3.251-2.238-4.999-2C387.645,164.989,387.996,169.678,389.719,174.692z"/>
	<path style="fill-rule:evenodd;clip-rule:evenodd;fill:#FFFFFF;" d="M120.002,831.36c1.747,2.805,2.676,3.248,4.749,5
		c1.37,1.156,3.905,3.754,5.75,3.749c1.318-0.004,6.029-3.376,7.249-4.249c2.526-1.81,4.517-3.808,6.249-5.25
		c8.761-7.291,15.745-13.529,23.497-21.997c1.629-1.779,3.375-3.788,5.499-5.999c1.793-1.866,4.301-4.55,4.5-6.75
		c0.404-4.467-3.515-6.465-2.5-11.748c0.598-3.111,4.137-5.907,6.749-8.749c7.26-7.898,17.272-16.021,24.497-23.247
		c7.798-7.798,14.193-16.044,22.247-23.497c10.436-9.656,19.775-20.774,29.997-30.996c5.106-5.106,10.027-10.026,15.248-15.248
		c5.052-5.053,9.661-10.551,14.748-15.748c2.532-2.587,5.282-4.917,7.749-7.499c10.021-10.486,19.651-21.15,29.747-31.246
		c5.06-5.06,10.25-10.076,14.998-15.498c2.361-2.695,4.609-5.497,7.249-7.999c2.571-2.438,5.018-5.183,7.499-7.749
		c7.143-7.385,12.912-15.548,20.247-23.497c2.322-2.516,5.27-5.276,8.749-6.499c4.191-1.473,9.219-0.648,12.999,0.75
		c3.672,1.358,7.232,3.038,10.998,4.249c7.744,2.49,17.763,5.151,24.998,1c6.795-3.9,11.15-12.601,13.747-21.497
		c2.686-9.198,3.146-20.003,5.749-29.497c2.59-9.443,5.545-17.406,10.25-24.997c4.483-7.234,10.426-13.027,16.747-18.498
		c6.532-5.651,13.508-9.924,20.997-14.248c3.713-2.143,7.318-4.522,11.25-6.499c11.465-5.765,23.342-11.645,33.744-18.998
		c14.203-10.037,27.029-18.932,40.245-30.246c3.108-2.661,6.162-5.618,9.249-8.499c6.066-5.658,11.891-11.376,17.248-17.998
		c2.572-3.179,5.566-6.086,8.249-9.249c2.685-3.167,5.017-6.786,7.5-10.249c9.378-13.087,19.288-28.173,21.997-48.494
		c1.477-11.075-2.156-20.871-6.5-28.246c-6.447-10.948-14.695-20.688-26.747-25.997c-8.482-3.736-18.195-5.295-29.496-2.749
		c-9.046,2.038-17.409,6.596-24.247,10.999c-7.379,4.751-13.961,9.5-20.246,14.998c-7.927,6.933-14.996,14.349-21.998,22.248
		c-0.357,0.402-0.547,0.833-1,1.249c-1.092,1.003-1.652,2.324-2.75,3.75c-5.019,6.516-10.557,12.851-15.748,19.497
		c-7.666,9.817-14.183,20.802-20.997,31.746c-2.274,3.652-4.728,7.236-6.749,10.999c-2.068,3.849-3.799,7.869-5.75,11.748
		c-1.89,3.762-4.104,7.651-5.748,11.999c-4.752,12.563-10.691,24.866-17.499,35.245c-11.61,17.706-27.701,30.739-46.744,41.495
		c-3.756,2.122-7.849,3.75-11.998,5.499c-8.419,3.548-16.162,7.345-22.247,12.998c-6.261,5.817-11.634,12.035-12.749,22.498
		c-0.975,9.154,0.602,15.669,3.5,22.247c0.671,1.522,2.816,4.454,2.75,5.999c-0.055,1.263-2.236,3.23-3.361,4.466
		c-1.314,1.444-4.02,3.798-5.183,4.935c-1.948,1.907-4.097,5.291-6.954,5.097c-1.416-0.096-1.858-0.677-2.749-2
		c-4.285-6.354-7.233-15.897-8.499-24.497c-1.891-12.839,0.506-25.639,3.999-32.746c4.045-8.231,9.156-16.13,15.748-21.998
		c3.302-2.939,7.253-5.428,10.999-7.999c3.781-2.596,7.682-5.101,11.749-6.999c9.131-4.261,18.347-6.705,26.747-10.998
		c1.914-0.979,3.799-2.537,5.749-3.75c13.361-8.306,23.22-20.428,29.748-36.246c1.867-4.529,2.887-9.583,4.248-14.498
		c1.322-4.77,2.812-9.32,4.749-13.998c1.907-4.604,3.771-9,5.75-13.249c1.966-4.22,4.532-7.717,6.999-11.749
		c4.762-7.778,9.338-15.542,14.498-23.247c2.494-3.723,5.309-7.41,7.999-10.999c16.042-21.396,34.225-41.045,54.743-58.492
		c5.077-4.316,10.002-8.788,15.748-12.498c9.193-5.937,20.049-11.663,31.746-15.248c2.642-0.81,4.979-1.358,7.749-1.75
		c2.825-0.4,6.21-0.856,9.249-1c14.079-0.666,25.934,4.173,34.996,10.499c9.494,6.627,16.547,13.703,23.246,22.247
		c3.463,4.416,6.521,8.464,9,13.749c2.387,5.091,4.629,10.529,5.498,17.247c1.693,13.068-0.172,27.064-4.248,38.995
		c-9.596,28.079-23.91,51.689-42.245,71.241c-3.671,3.913-7.249,7.998-10.999,11.749c-7.582,7.582-15.5,14.707-23.748,21.497
		c-4.051,3.335-8.494,6.405-12.998,9.749c-12.605,9.36-27.305,19.408-42.494,25.747c-4.994,2.085-9.754,5.157-14.748,7.999
		c-9.417,5.358-18.869,11.66-26.746,18.748c-4.065,3.657-7.95,7.464-11,11.499c-6.546,8.66-10.633,20.155-13.498,31.996
		c-3.111,12.863-5.475,23.555-12.498,32.746c-3.342,4.375-6.98,7.751-11.749,10.999c-4.529,3.085-9.567,6.075-15.747,6.999
		c-11.521,1.723-20.285-0.928-28.997-3.999c-3.17-1.118-6.878-2.542-10.249-1.75c-4.76,1.118-10.309,7.585-13.999,11.499
		c-11.984,12.711-23.783,25.531-35.746,37.494c-8.179,8.18-15.993,16.742-23.997,24.748c-24.226,24.228-48.236,49.734-72.491,73.99
		c-7.635,7.636-15.459,16.209-23.997,24.747c-3.717,3.718-7.841,8.234-12.249,12.248c-1.897,1.728-3.839,3.814-6.249,5.999
		c-2.23,2.023-4.255,4.389-4.499,6.5c-0.316,2.727,1.477,4.492,2.25,6.499c0.809,2.101,1.978,4.372,1.749,6.999
		c-0.296,3.409-4.731,6.982-7.249,9.748c-1.372,1.507-3.046,2.688-4.499,4c-7.364,6.652-14.338,13.46-22.247,19.998
		c-2.886,2.385-6.094,5.22-9.249,7.748c-4.714,3.778-9.525,7.438-14.498,10.749c-3.174,2.113-6.039,4.607-9.999,6.999
		c-3.936,2.379-6.041,3.655-10.499,1.75c-4.883-2.087-7.982-6.199-12.249-10.748c-1.944-2.074-3.446-3.684-5.499-6
		c-1.518-1.711-4.452-4.691-4.749-6.749c-0.492-3.396,2.784-9.292,4.749-12.249c2.284-3.433,5.138-6.957,6.999-9.748
		c8.882-13.319,17.765-26.242,27.247-39.995c2.074-3.009,4.195-6.564,6.749-9.999c2.069-2.782,5.822-8.55,8.499-8.748
		c1.491-0.111,3.238,0.817,4.75,1.749c2.879,1.775,9.146,6.432,9.249,9.749c0.086,2.798-3.418,6.393-5.249,8.749
		c-10.279,13.216-20.414,25.097-30.996,37.745C127.661,821.05,123.195,826.47,120.002,831.36z M147.749,770.368
		c-1.968,2.82-4.225,5.619-6.249,8.499c-3.99,5.677-7.883,11.566-12.248,17.247c-6.224,8.1-11.92,17.83-17.748,26.247
		c-2.113,3.053-4.639,5.829-5.999,8.749c-0.762,1.635-1.685,4.25-1.5,5.999c0.326,3.091,2.239,4.739,4.25,6.749
		c3.674,3.675,6.391,6.996,10.248,10.499c2.683,2.436,4.917,4.353,8.749,3.749c3.595-0.564,6.889-3.095,10.249-5.499
		c6.687-4.785,12.269-8.845,17.998-13.498c2.879-2.339,5.763-4.267,8.999-6.999c9.449-7.981,19.543-17.736,28.997-26.497
		c1.811-1.679,3.087-2.977,3.249-4.749c0.229-2.495-1.18-5.003-1.999-6.999c-0.935-2.276-2.367-3.951-2-6.749
		c0.361-2.75,2.8-5.276,4.999-7.5c14.45-14.606,28.17-28.918,42.245-42.994c24.221-24.223,48.328-49.326,72.491-73.49
		c22.278-22.28,43.899-45.428,65.242-68.742c2.054-2.243,4.142-4.542,6.249-5.999c4.87-3.367,11.183-1.893,16.248,0
		c8.203,3.065,17.378,5.983,28.247,3.75c14.644-3.009,24.463-13.031,30.495-25.247c3.84-7.778,5.266-16.299,7.498-25.997
		c2.656-11.529,7.98-22.053,13.999-30.746c8.756-12.646,23.433-21.456,36.995-29.746c4.75-2.903,9.686-5.204,14.748-7.749
		c2.455-1.234,5.164-2.157,7.5-3.5c16.258-9.345,32.992-20.252,46.993-31.246c20.521-16.112,38.782-36.251,54.243-57.243
		c3.197-4.34,5.715-9.055,8.5-13.749c5.616-9.469,10.266-19.705,13.998-30.746c3.941-11.659,6.666-25.086,4.75-38.745
		c-0.898-6.4-2.984-11.918-5.25-16.998c-2.309-5.174-5.576-9.385-9-13.499c-6.896-8.288-13.729-15.333-22.995-21.497
		c-9.411-6.257-20.769-10.264-35.497-9.249c-10.496,0.724-19.938,4.906-28.496,8.999c-8.143,3.895-15.471,9.14-22.248,14.248
		c-14.441,10.886-26.834,22.537-37.994,35.246c-14.307,16.289-27.777,33.541-39.496,51.993c-2.346,3.695-5.064,7.215-7.248,10.999
		c-5.554,9.621-10.666,20.146-14.499,31.246c-2.408,6.976-3.784,14.448-6.249,21.248c-6.197,17.101-19.366,31.078-33.496,39.495
		c-3.818,2.274-7.718,4.469-11.998,6.249c-4.155,1.728-8.73,3.076-13.499,4.999c-8.357,3.371-16.277,8.004-22.997,13.499
		c-3.454,2.824-6.85,5.553-9.499,8.749c-2.843,3.43-4.95,7.07-7.25,11.249c-4.619,8.394-6.7,16.833-6.499,29.996
		c0.091,5.969,1.064,10.632,2.75,15.498c1.462,4.22,4.876,12.412,5.999,12.499c1.124,0.087,3.523-3.041,5.812-5.145
		c1.519-1.396,5.185-3.759,5.186-6.104c0-0.58-0.778-2.01-1.25-3c-3.517-7.377-4.925-16.458-3.499-26.497
		c2.833-19.95,18.768-29.877,35.496-36.246c17.325-6.596,31.425-16.676,43.246-28.497c6.2-6.201,11.616-12.409,15.997-19.997
		c2.15-3.727,4.551-7.321,6.499-11.249c3.979-8.021,7.644-16.706,10.999-24.997c1.728-4.271,3.638-8.267,5.748-12.249
		c3.791-7.147,8.324-15.001,12.999-22.747c4.482-7.428,9.265-14.915,14.249-21.747c1.23-1.687,2.279-3.569,3.498-5.249
		c3.828-5.276,7.961-10.085,11.999-14.999c5.534-6.729,10.669-13.667,16.499-19.497c10.896-10.896,24.862-24.147,39.494-32.246
		c6.98-3.863,16.234-8.578,25.996-9.999c22.908-3.332,39.725,8.874,49.494,21.248c5.399,6.836,9.916,14.443,12.248,23.747
		c4.113,16.398-1.788,32.965-7.498,43.745c-6.363,12.016-13.256,22.497-21.247,32.496c-16.095,20.137-34.358,37.734-54.993,52.993
		c-13.553,10.022-27.298,20.729-43.244,28.496c-15.841,7.715-32.514,16.456-44.746,26.997c-3.373,2.908-6.197,5.669-8.998,8.748
		c-8.702,9.569-13.423,22.212-17.498,36.496c-1.42,4.983-1.962,10.245-2.75,15.248c-1.608,10.214-4.316,19.669-9.498,26.497
		c-2.53,3.333-6.271,6.692-9.748,8.249c-3.433,1.537-8.525,1.561-12.499,1.25c-8.545-0.668-15.048-3.66-21.747-6.249
		c-3.431-1.326-7.191-2.836-11.748-2.25c-3.12,0.401-5.678,3.427-8.249,6c-6.745,6.745-11.232,13.981-17.498,20.247
		c-9.07,9.07-17.8,18.801-25.997,26.997c-6.63,6.63-12.893,13.703-19.248,20.247c-1.05,1.082-2.484,1.899-3.5,3
		c-0.531,0.575-0.749,1.447-1.25,2c-0.561,0.618-1.195,1.184-1.749,1.749c-13.141,13.407-26.258,26.781-38.745,40.495
		c-4.158,4.566-9.034,8.62-13.249,13.248c-8.402,9.227-17.337,18.102-25.997,26.997c-8.389,8.616-17.328,17.665-25.997,26.997
		c-6.046,6.508-14.215,13.131-20.498,20.247c-2.122,2.403-6.584,5.677-6.749,7.499c-0.327,3.613,3.569,6.004,3.499,10.248
		c-0.013,0.804-0.613,2.616-1,3.5c-1.974,4.516-7.438,8.542-11.249,12.498c-9.973,10.354-19.716,19.181-31.746,27.497
		c-2.583,1.786-5.548,4.27-7.749,4.249c-3.213-0.029-5.747-2.682-7.999-4.749c-2.115-1.942-5.305-3.853-5.25-7.499
		c0.044-2.818,3.379-5.908,5.25-8.249c12.374-15.483,23.606-29.822,35.996-44.994c1.633-2,5.677-6.232,5.499-8.249
		c-0.144-1.643-2.973-3.184-4.249-4.25c-1.895-1.582-3.562-3.225-5.5-3.249C151.165,764.202,149.764,767.481,147.749,770.368z"/>
	<path style="fill-rule:evenodd;clip-rule:evenodd;fill:#FFFFFF;" d="M356.723,271.431c5.719-0.983,10.996,4.045,15.748,6.499
		c7.736,3.995,16.324,7.867,23.997,12.998c3.925,2.625,8.509,5.528,9.498,8.999c0.773,2.708-0.252,6.091-1.249,6.999
		c-4.292,3.908-13.093-1.606-16.998-3.999c-2.123-1.302-4.694-2.829-7.499-4.25c-2.863-1.45-5.771-3.22-7.999-3.749
		c-3.536-0.84-6.733-0.141-9.499-0.75c-1.42-0.313-4.385-1.488-5.75-2.25c-2.554-1.426-5.158-3.691-6.249-6.249
		c-0.896-2.099-1.419-6.453-0.75-8.749C350.81,274.059,354.247,271.856,356.723,271.431z M394.718,293.178
		c-7.043-4.957-15.676-8.911-23.497-12.999c-3.795-1.983-8.256-5.95-12.999-5.5c-5.122,0.487-6.916,5.442-4.75,9.999
		c2.125,4.471,7.796,6.508,13.498,6.999c1.149,0.099,2.432-0.176,3.75,0c4.048,0.541,6.856,2.526,9.999,3.999
		c1.881,0.882,3.88,1.547,5.499,2.5c2.449,1.441,4.826,3.458,7.499,4.75c2.749,1.328,6.095,3.252,8.999,0.25
		C403.042,297.944,398.147,295.591,394.718,293.178z"/>
	<path style="fill-rule:evenodd;clip-rule:evenodd;fill:#FFFFFF;" d="M591.692,347.421c-2.441-5.307-5.271-10.072-9.748-14.248
		c-1.219-1.137-3.238-3.191-4.5-3.25c-2.543-0.119-5.711,5.181-7.998,8.499c-2.488,3.609-4.928,7.337-7,10.249
		c-5.119,7.195-9.834,13.293-14.998,19.497c-5.192,6.24-10.562,12.021-15.998,18.748c-1.225,1.517-2.745,2.961-4.218,4.578
		c-1.381,1.517-3.499,3.17-4.53,4.921c-2.156,3.66-4.131,8.033-4.25,12.998c-0.131,5.478,1.721,9.301,1.5,14.748
		c-0.215,5.321-2.834,10.783-7,11.999c-3.695,1.079-9.027-0.688-12.248,0.25c-1.588,0.462-4.154,2.652-4.748,4.499
		c-0.744,2.306,0.107,5.902-0.25,8.499c-0.184,1.324-1.091,3.107-1.75,4.749c-1.316,3.272-3.017,6.31-5.5,8.249
		c-4.8,3.748-11.086,5.137-18.748,5c-0.152-0.002-0.35-0.03-0.5,0c-3.586,0.718-8.456,3.889-11.748,6.75
		c-9.701,8.428-17.898,19.296-26.496,28.246c-5.949,6.192-11.65,12.649-17.748,18.748c-6.179,6.179-11.6,13.1-17.498,18.997
		c-3.049,3.05-6.395,5.938-9.249,9.249c-1.424,1.652-5.932,5.364-7.407,6.95c-4.287,4.615-6.914,6.961-11.341,11.798
		c-4.407,4.815-5.412,5.442-11.626,12.318c-1.414,1.565-4.7,4.867-6.122,6.429c-2.882,3.166-5.722,6.289-8.654,9.518
		c-2.839,3.127-6.137,6.103-9.093,9.231c-3.011,3.185-5.633,6.768-8.65,9.622c-6.164,5.826-12.27,12.089-18.083,18.682
		c-2.792,3.166-5.805,6.288-8.762,9.441c-1.504,1.605-3.189,3.386-4.631,4.975c-4.209,4.634-8.484,9.129-13.116,13.773
		c-3.082,3.09-6.029,6.152-8.977,9.346c-5.889,6.382-12.406,12.227-17.83,18.684c-4.217,5.02-9.182,9.222-13.734,14.075
		c-7.136,7.61-14.576,15.265-21.952,23.387c-8.299,9.14-16.101,17.547-25.274,27.07c-2.526,2.622-8.055,9.513-10.04,9.593
		c-1.786,0.072-4.827-2.684-6.181-3.917c-2.159-1.966-4.186-3.068-4.354-5.604c-0.178-2.675,2.195-5.666,4.125-7.843
		c9.023-10.179,16.794-19.252,26.726-29.049c11.187-11.034,22.54-23.092,32.496-34.995c5.104-6.102,10.806-11.505,16.248-17.498
		c1.712-1.886,4.001-3.346,5.5-5.499c14.625-15.657,30.723-32.352,45.944-48.424c10.509-11.096,21.46-21.802,31.985-32.985
		c3.269-3.473,12.596-13.438,19.058-20.328c8.018-8.55,14.391-15.696,22.997-25.497c7.535-8.582,15.609-16.858,23.997-25.247
		c7.919-7.919,15.486-16.795,23.747-25.747c3.775-4.09,7.905-8.296,11.999-12.749c3.88-4.222,8.509-10.464,12.997-12.499
		c5.153-2.335,13.908-0.187,18.497-2.75c1.633-0.911,3.676-2.436,4-4.249c0.815-4.561-2.481-6.936-2.75-10.999
		c-0.213-3.226,0.973-6.958,2.75-8.499c2.777-2.407,7.813-2.249,12.998-2.249c7.588,0,15.675-0.305,17.748-6.25
		c0.927-2.651,0.558-7.184,0-10.499c-0.416-2.474-1.574-4.652-1.75-6.999c-0.564-7.571,2.016-11.55,6.999-15.998
		c2.985-2.664,6.3-5.39,8.749-7.749c11.942-11.501,20.377-23.336,29.246-37.246c3.281-5.145,6.207-10.213,9-15.998
		c0.916-1.901,1.416-3.989,2.5-5.749c2.688-4.374,9.588-9.259,14.498-10.499c3.508-0.887,8.107,2.343,11.248,4.249
		c5.414,3.285,10.158,6.827,14.748,11.249c2.287,2.203,4.844,4.193,6.75,6.249c2.049,2.212,4.375,5.789,5.748,8.749
		c3.285,7.08,1.166,16.3-2.25,22.497c-1.639,2.975-4.361,5.845-6.998,8.749c-2.44,2.686-4.886,5.379-7.75,7.749
		c-6.098,5.048-11.07,8.771-18.496,12.498c-6.452,3.239-13.645,6.742-20.748,10.499c-3.017,1.596-6.858,3.751-9.748,5.749
		c-2.688,1.858-6.59,5.891-9.75,5.75c-0.971-0.044-3.707-1.23-4.5-2.5c-0.956-1.534-0.856-4.942-1-7.5
		c-0.168-3.001,0.618-5.647,1.5-6.749c0.967-1.207,5.757-2.142,7.5-2.75c3.055-1.066,6.082-2,8.248-3
		c2.398-1.106,4.637-3.021,7-4.499c6.938-4.337,12.983-9.746,18.998-14.998c4.215-3.683,7.914-7.39,11.248-11.499
		C586.011,357.081,589.744,353.169,591.692,347.421z M198.315,742.117c16.472-16.84,37.312-41.022,52.07-56.283
		c19.126-19.777,38.123-39.744,57.344-59.198c1.491-1.509,2.756-3.24,4.249-4.749c11.872-12.001,24.217-25.326,35.496-37.746
		c4.369-4.811,8.896-8.564,12.999-13.248c4.284-4.892,8.906-9.306,13.248-13.999c1.442-1.559,3.108-3.899,4.5-5.499
		c4.3-4.943,8.876-8.312,13.248-12.998c1.442-1.546,2.666-3.264,4.25-4.75c1.521-1.427,3.109-2.976,4.499-4.499
		c2.85-3.121,6.983-6.062,9.749-9.249c3.429-3.952,7.354-8.04,10.749-11.749c2.233-2.44,4.232-4.984,6.5-7.249
		c5.638-5.631,11.507-12.381,17.246-18.997c5.533-6.377,12.216-13.649,19.749-16.498c1.906-0.722,4.967-1.35,6.748-1.5
		c3.911-0.33,7.012,0.1,9.499-0.75c4.929-1.685,7.549-4.728,9.749-8.749c0.921-1.682,1.517-2.853,1.75-4.249
		c0.607-3.63-0.351-7.148,0.5-9.999c1.021-3.424,3.675-5.681,6.748-6.499c0.901-0.239,3.881-0.418,4.682-0.54
		c2.183-0.33,2.793,0.094,5.317-0.46c0.435-0.095,1.257-0.403,1.866-0.651c0.77-0.313,1.307-0.756,1.883-1.099
		c3.293-1.953,4.004-6.162,3.75-11.498c-0.178-3.744-1.709-8.268-1.25-13.499c0.391-4.434,2.77-8.65,5.25-12.249
		c1.156-1.676,2.885-2.939,4.25-4.499c1.481-1.694,2.668-3.423,3.998-4.75c5.9-5.883,11.131-12.679,16.248-18.997
		c4.918-6.071,9.973-12.809,14.748-20.248c2.076-3.232,4.232-6.882,7-10.499c2.559-3.345,6.082-8.079,9.248-8.499
		c3.09-0.41,4.737,0.974,6.75,2.75c3.561,3.139,6.078,6.407,8.748,10.249c1.423,2.046,3.225,3.614,3.5,5.999
		c0.475,4.097-1.894,7.917-4,10.749c-8.713,11.718-19.07,20.527-29.996,29.496c-2.798,2.297-5.637,4.448-8.748,6.249
		c-4.967,2.876-10.283,4.826-15.748,6.75c-1.732,0.609-3.727,1.124-5,2.5c0.133,1.884-0.715,8.307,1.75,9.999
		c4.236-0.442,7.243-3.711,10.748-6c3.428-2.238,7.358-4.072,11.25-5.999c7.502-3.715,15.337-7.481,22.496-12.249
		c7.138-4.753,13.805-9.333,19.248-15.498c4.713-5.337,11.217-13.974,10.748-23.997c-0.31-6.664-4.633-10.081-8.248-13.998
		c-4.94-5.351-10.584-9.905-16.748-13.748c-1.326-0.827-2.832-2.01-4.5-3c-2.277-1.351-5.339-3.395-8.498-2.25
		c-7.975,2.891-11.893,14.473-16.498,21.998c-2.336,3.815-4.83,7.69-7.25,11.499c-2.471,3.891-4.934,7.837-7.498,11.249
		c-2.938,3.908-5.673,7.118-8.25,10.499c-3.766,4.942-8.391,10.442-13.248,14.748c-1.674,1.483-3.277,3.133-5,4.5
		c-4.15,3.294-7.162,6.172-8.248,9.499c-1.912,5.862,1.749,14.143,1.75,19.998c0,3.55-0.795,6.986-3.5,9.249
		c-3.301,2.762-9.367,3.23-13.748,3.749c-2.329,0.276-6.193,0.126-8.933,0.129c-3.169,0.004-4.142,0.257-5.815,1.621
		c-0.504,0.411-1.515,1.406-1.75,2.5c-0.553,2.583,1.438,5.38,2,8.499c0.818,4.537,0.119,9.311-1.25,10.749
		c-1.369,1.438-5.422,3.32-10.248,3.999c-3.824,0.538-7.958-0.131-11.499,0.75c-3.371,0.839-6.93,6.43-9.999,9.499
		c-3.189,3.19-6.15,6.202-8.748,8.999c-5.904,6.355-12.096,12.269-17.249,18.248c-2.761,3.204-5.987,5.871-8.749,8.999
		c-8.408,9.523-16.393,18.548-24.747,27.746c-5.586,6.151-11.683,11.945-17.497,17.998c-2.899,3.018-5.5,6.249-8.499,9.249
		c-2.945,2.945-4.94,5.698-8.632,9.238c-6.054,5.805-11.701,11.912-17.365,18.008c-12.888,13.873-26.256,27.438-38.745,41.245
		c-4.292,4.744-7.779,9.114-11.998,13.748c-2.821,3.099-6.458,6.426-9.249,9.499c-2.823,3.108-5.915,5.948-8.749,8.999
		c-4.351,4.683-8.547,9.561-12.999,13.748c-6.525,6.138-7.668,8.198-11.998,12.748c-2.903,3.051-6.612,7.252-9.499,10.249
		c-8.5,8.825-18.294,18.508-26.747,27.497c-2.783,2.959-5.763,5.897-8.749,8.998c-2.766,2.871-6.15,5.947-8.749,8.999
		c-2.309,2.712-7.591,8.199-8.09,10.42c-0.387,1.721,1.858,2.579,3.038,3.763c1.559,1.562,3.059,3.12,4.066,3.12
		C181.388,760.424,188.1,752.56,198.315,742.117z"/>
	<path style="fill-rule:evenodd;clip-rule:evenodd;fill:#FFFFFF;" d="M711.178,378.667c6.023-0.523,13.132,0.651,19.499,1.25
		c2.079,0.195,4.271,0.087,6.748,0.25c4.539,0.297,9.814,1.05,14.748,1.5c4.494,0.41,11.32,0.138,13.748,2.249
		c1.859,1.617,5.58,10.151,3.5,13.999c-1.537,2.844-9.631,3.586-15.248,3c-3.662-0.382-7.095-1.838-11.249-2.25
		c-1.201-0.119-2.483,0.025-3.749-0.25c-2.195-0.477-3.695-2.588-6.25-3c-3.631-0.585-6.81,0.814-9.748,0.75
		c-6.166-0.134-8.955-2.173-11.999-6.249c-1.491-1.999-3.507-3.878-3.499-6.249C707.686,381.294,709.157,379.577,711.178,378.667z
		 M763.171,386.666c-3.298-2.479-8.155-2.156-13.498-2.25c-5.373-0.094-11.252-0.567-16.248-0.999
		c-4.846-0.419-8.607,0.209-13.498-0.5c-2.225-0.323-4.346-1.286-5.499-1c-5.261,1.306,1.001,8.748,2.999,9.748
		c4.65,2.327,11.447-0.381,17.498,1c2.084,0.476,4.086,1.754,6.25,2.25c2.496,0.572,4.985,0.318,7.498,0.75
		c2.555,0.438,4.707,1.54,6.75,1.75c3.812,0.391,8.284,0.218,10.498-1C766.873,392.338,765.452,388.381,763.171,386.666z"/>
	<path style="fill-rule:evenodd;clip-rule:evenodd;fill:#FFFFFF;" d="M691.181,453.908c6.134-1.381,10.396,2.973,14.248,6.749
		c3.744,3.67,7.457,7.092,11.998,9.749c3.787,2.214,8.676,3.402,13,5.749c1.885,1.024,3.414,2.897,5.248,4
		c1.305,0.784,2.869,1.313,4.25,2c3.947,1.964,7.727,4.317,11.498,6.999c3.692,2.624,7.693,4.799,11.498,7.249
		c0.607,0.391,1.115,0.871,1.75,1.25c2.121,1.266,4.99,3.923,6,6.749c1.906,5.34-0.012,12.132-4.25,12.498
		c-3.102,0.269-7.686-2.587-10.748-4.499c-5.971-3.728-10.66-6.342-15.998-10.249c-0.412-0.302-0.885-0.452-1.25-0.75
		c-0.295-0.24-0.435-0.749-0.75-1c-2.766-2.195-5.932-3.644-9.248-5.75c-7.297-4.632-13.348-7.304-19.248-10.999
		c-4.506-2.821-8.934-5.933-13.498-8.999c-3.051-2.048-5.275-3.378-7.75-6.5c-1.018-1.284-2.215-2.913-2.5-4
		C684.089,459.023,688.067,454.609,691.181,453.908z M696.681,471.655c9.502,6.801,20.516,12.034,30.246,17.498
		c10.273,5.769,18.412,13.488,27.996,19.498c3.264,2.045,6.953,5.059,11.498,3.999c1.19-1.938,1.272-3.75,0.75-5.749
		c-1.343-5.136-7.969-9.189-11.998-11.499c-9.793-5.612-18.404-12.674-29.246-16.998c-2.955-1.178-5.93-2.562-8.75-4.249
		c-5.891-3.524-9.395-7.608-14.498-11.999c-3.229-2.779-6.372-5.191-10.498-4.999C686.044,461.892,692.589,468.728,696.681,471.655z
		"/>
	<path style="fill-rule:evenodd;clip-rule:evenodd;fill:#FFFFFF;" d="M619.94,487.403c0.327-0.066,2.308-0.533,4,0
		c3.841,1.211,5.524,6.545,7,10.499c1.507,4.044,4.589,8.896,6.497,10.998c2.57,2.831,6.623,5.052,9.75,8.499
		c1.741,1.921,3.406,4.117,5.25,6.25c1.736,2.01,3.18,4.305,4.748,6.499c3.191,4.465,8.258,8.393,10.5,12.249
		c2.863,4.926,3.625,11.747-2.25,13.498c-5.907,1.761-10.326-1.595-13.498-4.499c-5.58-5.108-8.732-12.751-13.25-19.498
		c-1.453-2.172-3.281-4.229-4.748-6.499c-2.994-4.629-5.629-8.57-9.749-12.248c-3.054-2.726-7.29-5.005-9.249-8.749
		c-1.533-2.929-2.209-8.257-1.75-10.749C613.87,489.956,617.876,487.82,619.94,487.403z M657.935,535.898
		c-2.891-3.464-5.787-7.229-8.498-10.749c-2.973-3.857-5.85-6.658-9.5-9.749c-5.104-4.324-7.151-8.615-10.747-15.248
		c-1.331-2.452-3.235-7.222-5-7.999c-3.454-1.52-6.6,1.232-7.25,3.25c-1.944,6.035,3.54,10.268,6.5,12.999
		c2.517,2.323,5.305,4.415,7.25,6.749c3.122,3.747,6.313,8.848,9.247,13.999c1.338,2.347,3.256,4.53,4.75,6.999
		c3.299,5.451,5.438,9.965,10.248,13.498c2.625,1.928,5.896,3.459,9.25,2.5C668.307,545.707,661.39,540.037,657.935,535.898z"/>
</g>
</svg>
