<?xml version="1.0" encoding="iso-8859-1"?>
<!-- Generator: Adobe Illustrator 21.0.2, SVG Export Plug-In . SVG Version: 6.00 Build 0)  -->
<svg version="1.1" id="Layer_1" xmlns="http://www.w3.org/2000/svg" xmlns:xlink="http://www.w3.org/1999/xlink" x="0px" y="0px"
	 viewBox="0 0 595.28 841.89" style="enable-background:new 0 0 595.28 841.89;" xml:space="preserve">
<g>
	<path style="fill-rule:evenodd;clip-rule:evenodd;fill:#FFFFFF;" d="M355.179,48.654c-0.066,0.009,0.943-0.366,2-0.2
		c3.22,0.505,6.099,4.196,7.6,6.999c1.303,2.435,2.462,5.849,3.399,9.199c0.978,3.497,1.91,7.455,2,10.599
		c0.099,3.498-0.162,6.766,0.999,9.398c1.147,2.599,3.384,4.123,5,6.399c2.157,3.04,4.304,7.276,4.199,12.398
		c-0.084,4.108-2.184,8.96-5.799,8.999c-5.688,0.061-5.224-7.555-6.399-12.798c-0.532-2.373-1.885-5.161-3-7.999
		c-1.004-2.556-2.062-5.152-3.399-7.399c-2.965-4.984-4.122-10.772-6.199-15.398c-1.439-3.205-3.02-5.869-4-10.398
		c-0.526-2.436-1.115-5.439-0.399-7.399C351.797,49.363,353.631,48.86,355.179,48.654z"/>
	<path style="fill-rule:evenodd;clip-rule:evenodd;fill:#FFFFFF;" d="M269.99,50.854c0.816-0.086,1.61-0.31,3.2,0.6
		c1.229,0.703,2.273,1.661,2,1.399c4.816,4.627,7.224,11.786,10.998,17.798c3.077,4.901,5.468,7.793,9.599,12.199
		c2.903,3.095,6.288,6.522,9.399,9.798c3.525,3.713,8.55,8.558,10.799,13.599c1.944,4.358,2.066,13.059-3.8,13.198
		c-3.2,0.076-6.725-3.732-8.599-5.999c-0.89-1.077-1.943-2.092-2.6-3.2c-1.211-2.044-1.992-4.537-3.2-6.799
		c-1.116-2.093-2.441-4.119-3.6-6.199c-2.197-3.947-4.784-8.125-8.599-11.199c-3.925-3.162-7.505-4.435-11.199-7.799
		c-2.909-2.648-6.673-7.156-8.399-10.799c-1.742-3.675-3.799-10.065-1-13.998C266.024,52.001,268.054,51.055,269.99,50.854z"/>
	<path style="fill-rule:evenodd;clip-rule:evenodd;fill:#FFFFFF;" d="M38.019,592.786c1.934-6.072,6.108-10.935,9.599-15.998
		c3.497-5.072,6.925-10.189,10.399-15.198c6.105-8.808,11.581-18.124,18.197-26.597c0.902-1.155,1.822-2.537,3.2-3.199
		c2.94,1.793,5.902,3.562,7.799,6.399c-5.294,8.554-12.645,16.565-19.798,25.196c-3.206,3.869-6.552,7.869-10.199,12.198
		c-0.768,0.912-1.432,2.143-2.399,3.2c-1.78,1.943-3.343,3.592-5.2,5.999c-1.142,1.481-1.99,2.441-2,3.999
		c-0.02,3.246,6.935,10.295,12.398,9.799c1.952-0.177,4.445-2.36,6.199-3.799c7.282-5.971,14.24-11.803,21.197-18.198
		c3.282-3.017,6.44-6.177,9.599-9.998c1.679-2.032,3.777-3.621,3.999-6.199c0.177-2.051-0.464-3.677-1.2-5
		c-0.716-1.288-2.03-2.574-2-4.199c0.036-1.972,2.91-3.936,4.799-5.999c8.44-9.22,17.794-17.866,25.997-27.396
		c3.354-3.897,6.916-7.378,10.599-10.799c7.319-6.8,13.942-14.608,21.197-21.598c7.426-7.153,15.134-13.892,21.797-20.997
		c5.193-5.538,10.651-10.669,16.198-15.998c5.365-5.154,10.545-10.567,15.598-16.398c6.617-7.637,14.446-13.688,20.997-21.797
		c3.104-3.842,6.258-8.082,9.999-11.398c3.513-3.114,7.131-6.872,10.599-10.799c1.443-1.635,2.896-3.897,4.799-5.799
		c1.642-1.642,5.027-4.546,6.799-4.399c3.176,0.263,5.716,1.761,8.398,2.8c2.604,1.008,5.382,1.957,8.399,2.799
		c5.753,1.606,13.859,2.716,19.197,0c6.094-3.101,9.454-9.579,11.999-16.398c2.628-7.044,2.502-15.886,4.6-23.797
		c1.997-7.535,4.637-14.59,7.999-20.397c3.568-6.166,7.959-10.665,13.197-15.198c5.029-4.352,10.706-8.431,16.998-11.399
		c6.359-3,13.243-5.54,19.798-8.599c6.251-2.917,12.518-6.292,18.397-9.999c5.845-3.685,11.657-6.937,16.998-11.199
		c5.197-4.147,10.564-8.261,15.798-12.598c5.095-4.222,10.317-8.743,14.798-13.598c5.657-6.13,10.588-13.079,15.998-19.598
		c2.094-2.521,4.256-5.225,6-8.199c2.539-4.331,5.056-9.109,7.199-13.998c1.438-3.282,2.241-6.973,3.399-10.799
		c0.256-0.847,0.806-1.736,1-2.6c0.108-0.487-0.085-0.875,0-1.4c0.062-0.39,0.516-0.798,0.6-1.2c1.143-5.48,1.634-13.229,0.6-19.798
		c-1.203-7.64-4.733-14.045-8.999-19.397c-2.114-2.653-4.697-4.898-6.999-7.199c-6.883-6.883-17.433-12.2-30.996-11.398
		c-8.438,0.499-15.537,3.725-21.597,6.799c-11.719,5.945-22.648,15.849-31.797,24.997c-4.681,4.682-9.088,9.886-13.198,15.198
		c-4.099,5.299-8.223,10.673-12.398,15.998c-4.163,5.311-7.837,11.171-11.398,16.998c-3.618,5.921-7.133,11.793-10.398,17.798
		c-1.685,3.097-3.214,6.268-4.799,9.398c-1.649,3.256-2.794,6.608-4.2,9.999c-2.752,6.638-5.93,12.979-9.398,18.997
		c-3.467,6.015-7.58,11.292-11.999,16.398c-4.513,5.215-9.482,9.385-14.998,13.198c-5.312,3.673-11.241,7.738-17.798,10.599
		c-6.529,2.85-13.387,5.25-18.997,9.399c-4.975,3.679-9.863,8.631-12.799,15.598c-2.578,6.118-3.993,16.465-1.2,24.197
		c0.926,2.564,1.734,3.072,3.6,6.399c-2.189,2.627-3.834,4.138-6.399,6.599c-0.48,0.461-0.874,0.775-1.2,1
		c-0.602,0.415-0.252,0.5-1,0.2c-1.028-0.413-2.065-3.057-2.799-4.599c-2.361-4.96-4.094-10.859-4.6-17.598
		c-0.753-10.034,2.084-17.583,5.399-23.797c6.913-12.956,18.785-21.318,32.196-26.997c6.388-2.705,12.422-4.607,18.198-7.799
		c13.089-7.234,23.19-18.621,28.996-33.796c0.703-1.837,1.02-3.918,1.6-5.799c0.615-1.997,1.099-3.9,1.6-5.799
		c2.004-7.589,5.251-14.303,8.399-20.997c1.523-3.239,3.556-6.269,5.399-9.399c10.812-18.357,23.96-35.181,37.995-50.593
		c4.657-5.114,9.363-10.193,14.598-14.998c5.054-4.638,10.389-9.332,16.198-13.398c1.461-1.022,2.701-2.206,4.199-3.2
		c4.274-2.835,9.127-5.69,14.198-7.999c7.297-3.322,14.766-6.182,23.598-6.599c11.03-0.521,20.24,3.821,27.196,8.799
		c7.44,5.324,12.971,11.004,18.197,17.598c5.758,7.262,9.163,14.597,10.599,25.396c1.377,10.352-1.742,21.09-4.799,30.196
		c-2.888,8.601-7.066,16.803-11.398,24.597c-8.495,15.282-19.915,28.114-31.796,39.995c-2.995,2.995-6.192,5.839-9.399,8.599
		c-3.206,2.759-6.29,5.694-9.599,8.199c-6.768,5.122-13.801,10.088-21.197,14.798c-3.675,2.339-7.305,4.764-11.198,6.799
		c-3.895,2.035-7.847,3.894-11.999,5.799c-4.072,1.869-8.184,3.866-12.398,5.6c-12.518,5.148-23.613,12.215-29.996,23.797
		c-4.187,7.597-6.557,17.71-8.799,27.197c-1.192,5.046-2.183,9.782-3.8,14.198c-3.285,8.973-8.048,15.021-15.798,19.998
		c-3.77,2.42-8.188,4.646-12.999,4.999c-5.996,0.441-10.907-0.992-15.198-2.399c-4.05-1.329-9.463-3.972-14.798-2.6
		c-1.966,0.505-3.494,2.452-5.399,4.399c-4.809,4.914-9.939,10.263-14.398,14.998c-9.864,10.477-18.839,20.038-28.796,29.996
		c-3.292,3.292-6.423,6.7-9.799,9.799c-10.051,9.227-19.595,19.656-29.796,28.996c-10.279,9.411-19.577,18.925-29.396,29.397
		c-9.417,10.042-18.634,20.118-29.196,29.597c-1.597,1.433-3.204,2.822-4.999,4.799c-1.943,2.14-4.176,3.372-4.6,5.8
		c-0.442,2.531,0.293,5.251,1,7.199c0.723,1.991,2.658,4.12,2.6,5.799c-0.075,2.165-4,5.527-5.799,7.199
		c-2.532,2.353-4.63,4.347-6.799,6.199c-2.411,2.06-4.477,4.321-6.799,6.199c-2.467,1.995-4.688,4.065-6.999,5.999
		c-9.476,7.93-19.566,16.168-29.996,21.798c-0.232,0.032-0.356-0.044-0.4-0.2c-4.087-1.727-7.176-4.94-9.999-7.999
		C43.181,599.509,40.401,596.268,38.019,592.786z"/>
	<path style="fill-rule:evenodd;clip-rule:evenodd;fill:#FFFFFF;" d="M240.794,139.842c4.575-0.786,8.797,3.236,12.598,5.199
		c6.189,3.196,13.059,6.294,19.198,10.399c3.141,2.1,6.807,4.422,7.599,7.199c0.618,2.167-0.202,4.873-1,5.6
		c-3.434,3.126-10.474-1.285-13.598-3.2c-1.698-1.041-3.755-2.263-5.999-3.399c-2.29-1.161-4.617-2.577-6.399-3
		c-2.829-0.672-5.386-0.113-7.599-0.6c-1.136-0.251-3.507-1.19-4.6-1.8c-2.043-1.141-4.126-2.954-4.999-4.999
		c-0.717-1.679-1.135-5.162-0.6-6.999C236.064,141.945,238.813,140.183,240.794,139.842z"/>
	<path style="fill-rule:evenodd;clip-rule:evenodd;fill:#FFFFFF;" d="M379.777,242.429c5.281-1.494,11.141-3.107,15.998-6.199
		c10.97-6.984,21.362-15.805,29.596-25.996c1.658-2.053,3.593-4.575,4.399-6.599c2.031-5.091-2.021-9.406-4.6-12.398
		c-2.155-2.501-4.397-6.059-7.599-6.199c-3.175-0.139-5.843,3.096-7.999,5.999c-2.169,2.922-3.893,5.965-5.6,8.399
		c-3.973,5.667-8.056,10.983-11.998,15.798c-4.168,5.089-9.035,10.178-12.998,14.998c-0.973,1.182-1.834,2.7-3,3.999
		c-1.116,1.244-2.497,2.227-3.4,3.6c-1.819,2.766-3.65,6.42-4,9.799c-0.383,3.715,0.196,7.094,0.601,10.798
		c0.122,1.126,0.457,2.424,0.399,3.4c-0.177,3.011-1.919,6.922-3.999,7.799c-3.014,1.27-6.677-0.362-9.999,0.4
		c-2.098,0.481-4.547,2.61-5.199,4.8c-0.463,1.554,0.083,4.444-0.2,6.599c-0.354,2.684-2.784,7.376-4.399,8.999
		c-1.581,1.589-5.837,3.867-8.799,4.2c-2.122,0.238-4.647-0.406-7.599,0c-6.153,0.847-12.614,7.635-16.998,12.198
		c-4.737,4.931-8.954,10.325-13.599,15.398c-2.294,2.506-4.853,4.898-7.199,7.399c-2.375,2.533-4.579,5.179-6.999,7.599
		c-4.908,4.908-9.449,10.102-13.998,14.998c-2.34,2.518-4.93,4.752-7.199,7.399c-2.275,2.654-4.548,5.147-6.999,7.599
		c-7.278,7.278-14.08,14.879-21.397,22.197c-11.956,11.956-23.694,24.893-35.795,36.996c-4.852,4.853-9.86,9.521-14.198,14.798
		c-2.161,2.629-4.886,4.858-7.199,7.399c-16.073,17.652-32.95,34.754-49.194,52.593c-6.762,7.427-13.809,14.766-20.997,22.598
		c-0.999,1.088-2.111,2.437-3.4,3.799c-1.241,1.312-3.349,3.365-3.799,3.4c-1.04,0.079-2.827-1.687-3.6-2.4
		c-1.202-1.109-1.835-1.703-2.6-3.199c8.386-10.197,18.872-18.908,27.997-28.996c8.948-9.893,18.179-19.647,27.396-29.397
		c6.888-7.286,13.724-14.568,20.397-22.197c2.227-2.546,4.108-5.326,6.399-7.799c2.258-2.438,4.577-4.776,6.999-7.199
		c4.682-4.682,9.014-9.813,13.798-14.599c2.372-2.372,4.461-5.009,6.799-7.399c9.025-9.221,18.397-19.308,27.597-29.196
		c9.265-9.958,18.568-19.57,27.597-29.196c8.834-9.419,18.661-18.98,27.596-29.196c4.2-4.802,8.94-9.711,13.598-14.798
		c2.099-2.291,4.478-4.884,6.8-7.399c2.895-3.137,5.895-6.2,9.599-7.399c3.422-1.108,7.774,0.316,11.198-0.8
		c2.818-0.919,6.766-4.229,7.199-6.799c0.722-4.278-3.45-6.797-3.399-10.599c0.07-5.332,4.566-5.799,10.799-5.799
		c4.193,0,8.147-0.247,10.798-1.2c2.067-0.743,4.506-2.457,5.2-4.799c0.768-2.596,0.501-5.826,0.199-8.399
		c-0.445-3.804-2.432-6.747-0.999-10.599c1.085-2.918,4.267-5.824,7.198-8.199c8.164-6.613,15.964-15.47,21.998-23.797
		c4.016-5.543,8.246-12.079,11.998-18.598c1.973-3.427,3.06-7.326,4.999-10.398c2.039-3.229,5.137-6.003,7.999-7.199
		c1.746-0.729,4.626,0.783,6.399,1.8c5.084,2.913,9.338,5.991,13.398,9.799c4.343,4.072,12.107,10.411,10.599,19.797
		c-1.054,6.56-5.64,12.536-10.198,16.998c-2.266,2.218-4.996,3.98-7.6,5.999c-2.647,2.053-5.159,4.075-7.799,5.599
		c-5.538,3.197-11.383,6.294-17.998,9.199c-2.765,1.214-5.435,2.895-8.599,4.999c-1.797,1.195-6.284,5.245-8.399,4.599
		C379.017,251.386,380.072,245.14,379.777,242.429z"/>
	<path style="fill-rule:evenodd;clip-rule:evenodd;fill:#FFFFFF;" d="M540.756,216.832c0.134,0,0.267,0,0.4,0
		c-0.037,0.17,0.077,0.189,0.199,0.2c0,0.133,0,0.267,0,0.4c-0.17-0.037-0.189,0.078-0.199,0.2c-0.134,0-0.267,0-0.4,0
		c0.037-0.17-0.078-0.188-0.2-0.2c0-0.133,0-0.267,0-0.4C540.726,217.069,540.745,216.955,540.756,216.832z"/>
	<path style="fill-rule:evenodd;clip-rule:evenodd;fill:#FFFFFF;" d="M524.359,225.631c4.816-0.418,10.504,0.521,15.598,1
		c1.664,0.156,3.419,0.07,5.4,0.2c3.632,0.238,7.851,0.84,11.799,1.2c3.596,0.328,9.057,0.11,10.998,1.8
		c1.487,1.294,4.464,8.121,2.8,11.199c-1.23,2.275-7.704,2.869-12.198,2.4c-2.93-0.306-5.676-1.47-8.999-1.8
		c-0.961-0.095-1.987,0.02-3-0.2c-1.756-0.382-2.956-2.071-4.999-2.4c-2.904-0.468-5.448,0.651-7.799,0.6
		c-4.933-0.107-7.164-1.738-9.599-4.999c-1.194-1.599-2.807-3.102-2.8-4.999C521.565,227.733,522.743,226.359,524.359,225.631z"/>
	<path style="fill-rule:evenodd;clip-rule:evenodd;fill:#FFFFFF;" d="M508.361,285.824c4.905-1.105,8.316,2.378,11.398,5.399
		c2.995,2.936,5.965,5.674,9.599,7.799c3.029,1.771,6.94,2.721,10.398,4.599c1.51,0.82,2.732,2.318,4.199,3.2
		c1.044,0.627,2.296,1.051,3.4,1.6c3.158,1.571,6.181,3.454,9.198,5.599c2.954,2.099,6.155,3.839,9.199,5.799
		c0.485,0.312,0.892,0.697,1.399,1c1.697,1.013,3.992,3.138,4.8,5.399c1.525,4.272-0.01,9.706-3.399,9.999
		c-2.482,0.214-6.149-2.07-8.6-3.6c-4.776-2.982-8.527-5.073-12.798-8.199c-0.33-0.242-0.707-0.362-1-0.6
		c-0.236-0.192-0.348-0.6-0.6-0.8c-2.212-1.756-4.746-2.915-7.4-4.6c-5.837-3.706-10.678-5.843-15.398-8.799
		c-3.604-2.256-7.146-4.747-10.798-7.199c-2.44-1.638-4.221-2.703-6.199-5.199c-0.814-1.027-1.772-2.331-2-3.2
		C502.686,289.916,505.869,286.385,508.361,285.824z"/>
	<path style="fill-rule:evenodd;clip-rule:evenodd;fill:#FFFFFF;" d="M451.368,312.621c0.262-0.053,1.846-0.427,3.199,0
		c3.073,0.969,4.42,5.236,5.6,8.399c1.207,3.235,3.672,7.118,5.199,8.799c2.057,2.264,5.298,4.041,7.799,6.799
		c1.393,1.537,2.725,3.293,4.2,5c1.39,1.608,2.545,3.444,3.799,5.199c2.554,3.572,6.606,6.714,8.399,9.799
		c2.291,3.941,2.9,9.397-1.8,10.798c-4.726,1.409-8.261-1.275-10.799-3.6c-4.463-4.086-6.984-10.201-10.599-15.598
		c-1.163-1.738-2.626-3.384-3.8-5.199c-2.395-3.704-4.502-6.857-7.799-9.799c-2.443-2.181-5.831-4.004-7.399-6.999
		c-1.226-2.343-1.767-6.606-1.399-8.599C446.512,314.663,449.716,312.954,451.368,312.621z"/>
</g>
</svg>
